<svg width="18" height="21" viewBox="0 0 18 21" fill="none" xmlns="http://www.w3.org/2000/svg">
    <path d="M15.9844 5.01562H14.0156C14.0156 2.25 11.7656 0 9 0C6.23438 0 3.98438 2.25 3.98438 5.01562H2.01562C0.890625 5.01562 0 5.90625 0 7.03125V19.0312C0 20.1094 0.890625 21 2.01562 21H15.9844C17.1094 21 18 20.1094 18 19.0312V7.03125C18 5.90625 17.1094 5.01562 15.9844 5.01562ZM9 2.01562C10.6406 2.01562 12 3.375 12 5.01562H6C6 3.375 7.35938 2.01562 9 2.01562ZM15.9844 19.0312H2.01562V7.03125H15.9844V19.0312ZM9 11.0156C7.35938 11.0156 6 9.65625 6 8.01562H3.98438C3.98438 10.7812 6.23438 13.0312 9 13.0312C11.7656 13.0312 14.0156 10.7812 14.0156 8.01562H12C12 9.65625 10.6406 11.0156 9 11.0156Z" fill="white" fill-opacity="0.6"/>
</svg>
