<svg width="30" height="30" viewBox="0 0 30 30" fill="none" xmlns="http://www.w3.org/2000/svg">
    <g clip-path="url(#clip0_1_1422)">
        <path d="M6.67969 19.1797H23.3203V20.8203H6.67969V19.1797ZM7.61719 15.7812L8.32031 14.5703L9.02344 15.7812L10.1172 15.1562L9.41406 13.9453H10.8203V12.6953H9.41406L10.1172 11.4453L9.02344 10.8203L8.32031 12.0703L7.61719 10.8203L6.52344 11.4453L7.26562 12.6953H5.82031V13.9453H7.26562L6.52344 15.1562L7.61719 15.7812ZM13.2031 15.1562L14.2969 15.7812L15 14.5703L15.7031 15.7812L16.7969 15.1562L16.0938 13.9453H17.5V12.6953H16.0938L16.7969 11.4453L15.7031 10.8203L15 12.0703L14.2969 10.8203L13.2031 11.4453L13.9062 12.6953H12.5V13.9453H13.9062L13.2031 15.1562ZM24.1797 12.6953H22.7344L23.4766 11.4453L22.3828 10.8203L21.6797 12.0703L20.9766 10.8203L19.8828 11.4453L20.5859 12.6953H19.1797V13.9453H20.5859L19.8828 15.1562L20.9766 15.7812L21.6797 14.5703L22.3828 15.7812L23.4766 15.1562L22.7344 13.9453H24.1797V12.6953Z" fill="white"/>
    </g>
    <defs>
        <clipPath id="clip0_1_1422">
            <rect width="30" height="30" fill="white"/>
        </clipPath>
    </defs>
</svg>
