<svg width="30" height="30" viewBox="0 0 30 30" fill="none" xmlns="http://www.w3.org/2000/svg">
    <g clip-path="url(#clip0_1_1441)">
        <path d="M17.9297 5.82031H11.25C10.1172 5.82031 9.17969 6.75781 9.17969 7.92969V22.0703C9.17969 23.2422 10.1172 24.1797 11.25 24.1797H17.9297C19.0625 24.1797 20 23.2422 20 22.0703V7.92969C20 6.75781 19.0625 5.82031 17.9297 5.82031ZM14.5703 23.3203C13.9062 23.3203 13.3203 22.7734 13.3203 22.0703C13.3203 21.4062 13.9062 20.8203 14.5703 20.8203C15.2734 20.8203 15.8203 21.4062 15.8203 22.0703C15.8203 22.7734 15.2734 23.3203 14.5703 23.3203ZM18.3203 20H10.8203V8.32031H18.3203V20Z" fill="white"/>
    </g>
    <defs>
        <clipPath id="clip0_1_1441">
            <rect width="30" height="30" fill="white"/>
        </clipPath>
    </defs>
</svg>
