<svg width="17" height="17" viewBox="0 0 17 17" fill="none" xmlns="http://www.w3.org/2000/svg">
    <path d="M8.01562 2.01562C9.09375 2.01562 10.0312 2.90625 10.0312 4.03125C10.0312 5.10938 9.09375 6 8.01562 6C6.9375 6 6 5.10938 6 4.03125C6 2.90625 6.9375 2.01562 8.01562 2.01562ZM8.01562 12C10.7344 12 13.8281 13.3125 14.0156 14.0156H2.01562C2.25 13.3125 5.34375 12 8.01562 12ZM8.01562 0C5.8125 0 4.03125 1.82812 4.03125 4.03125C4.03125 6.23438 5.8125 8.01562 8.01562 8.01562C10.2188 8.01562 12 6.23438 12 4.03125C12 1.82812 10.2188 0 8.01562 0ZM8.01562 10.0312C5.34375 10.0312 0 11.3438 0 14.0156V16.0312H16.0312V14.0156C16.0312 11.3438 10.6875 10.0312 8.01562 10.0312Z" fill="white" fill-opacity="0.6"/>
</svg>
