<svg width="22" height="21" viewBox="0 0 22 21" fill="none" xmlns="http://www.w3.org/2000/svg">
    <path fill-rule="evenodd" clip-rule="evenodd" d="M2 9.20932C2 5.22772 5.22772 2 9.20932 2C13.1909 2 16.4186 5.22772 16.4186 9.20932C16.4186 13.1909 13.1909 16.4186 9.20932 16.4186C5.22772 16.4186 2 13.1909 2 9.20932ZM9.20932 0C4.12315 0 0 4.12315 0 9.20932C0 14.2955 4.12315 18.4186 9.20932 18.4186C11.627 18.4186 13.827 17.487 15.4701 15.9632L19.7066 20.1998C20.0972 20.5904 20.7303 20.5904 21.1208 20.1999C21.5114 19.8093 21.5114 19.1762 21.1209 18.7857L16.784 14.4487C17.8147 12.9614 18.4186 11.1559 18.4186 9.20932C18.4186 4.12315 14.2955 0 9.20932 0Z" fill="#55433C" fill-opacity="0.8"/>
</svg>
